<svg xmlns="http://www.w3.org/2000/svg" width="192" height="192" viewBox="0 0 192 192">
<g>
<path d="M 104.59 129.41 C103.44,129.72 102.27,129.98 101.99,129.99 C101.52,130.00 98.47,126.29 96.85,123.73 C96.45,123.09 95.15,123.53 93.45,124.86 C91.93,126.05 90.55,126.88 90.38,126.71 C89.40,125.74 86.26,98.37 87.03,97.59 C88.16,96.43 101.96,96.13 102.65,97.25 C102.93,97.70 103.13,102.02 103.09,106.85 C103.05,112.49 103.68,118.00 104.86,122.24 L 106.69 128.85 ZM 117.28 125.75 C115.69,129.17 112.39,130.18 111.38,127.56 C110.61,125.53 112.71,112.67 114.99,105.50 C120.34,88.69 124.99,76.58 126.41,75.79 C127.44,75.21 128.00,73.52 128.00,70.97 C128.00,67.14 128.06,67.07 130.50,68.18 C132.66,69.17 133.00,69.97 133.00,74.10 C133.00,76.73 132.54,79.16 131.98,79.51 C131.42,79.86 131.25,80.60 131.60,81.16 C131.95,81.73 131.28,83.48 130.12,85.05 C128.95,86.63 128.00,88.31 128.00,88.79 C128.00,89.26 126.84,90.74 125.43,92.07 C123.59,93.79 122.99,95.19 123.34,96.97 C123.60,98.34 123.25,100.60 122.56,101.98 C121.87,103.37 120.74,108.55 120.05,113.50 C119.35,118.45 118.10,123.96 117.28,125.75 ZM 130.42 48.34 C129.07,51.86 124.27,47.87 125.44,44.20 C125.80,43.04 125.24,42.14 123.74,41.48 C122.34,40.87 121.16,39.12 120.59,36.80 C119.89,33.97 118.95,32.84 116.59,31.97 C114.89,31.34 112.73,30.43 111.80,29.94 C109.60,28.78 96.55,28.47 92.00,29.46 C90.07,29.88 87.82,30.81 87.00,31.53 C86.18,32.26 83.47,33.55 81.00,34.42 C76.67,35.93 76.43,35.91 74.77,33.91 C73.28,32.11 73.23,31.63 74.45,30.41 C75.22,29.63 76.45,28.99 77.18,28.97 C77.91,28.95 79.37,28.28 80.44,27.47 C81.51,26.66 83.31,26.00 84.44,25.99 C85.57,25.99 87.75,25.34 89.27,24.54 C91.41,23.43 93.66,23.28 99.27,23.91 C103.26,24.36 107.91,24.52 109.62,24.27 C114.98,23.48 125.60,30.53 124.46,34.11 C124.07,35.36 124.35,36.00 125.29,36.00 C126.93,36.00 131.21,46.30 130.42,48.34 ZM 87.58 125.25 C87.99,126.53 87.58,127.00 86.09,127.00 C83.98,127.00 83.73,126.41 82.48,118.50 C82.14,116.30 80.70,110.00 79.30,104.50 C76.13,92.11 75.86,87.67 78.21,87.21 C79.41,86.97 80.11,87.72 80.54,89.68 C80.88,91.23 81.57,93.40 82.08,94.50 C82.59,95.60 83.91,102.57 85.02,110.00 C86.13,117.43 87.28,124.29 87.58,125.25 ZM 114.43 87.76 C116.59,89.46 116.61,89.66 115.08,93.15 C113.73,96.26 113.19,96.66 111.33,95.95 C109.41,95.22 109.08,94.10 108.45,86.08 C108.01,80.39 107.24,76.61 106.37,75.89 C104.60,74.42 104.60,72.00 106.38,72.00 C108.54,72.00 110.17,74.61 109.92,77.69 C109.52,82.74 109.98,86.00 111.09,86.00 C111.69,86.00 113.19,86.79 114.43,87.76 ZM 63.00 75.56 C63.00,77.97 60.58,77.15 59.25,74.29 C57.90,71.39 57.62,65.13 58.62,60.12 C59.77,54.40 61.00,56.90 61.00,64.94 C61.00,69.31 61.45,73.16 62.00,73.50 C62.55,73.84 63.00,74.77 63.00,75.56 ZM 94.76 108.42 C95.59,109.26 96.29,109.10 98.25,107.61 C101.39,105.23 100.26,104.00 94.93,104.00 C90.74,104.00 89.91,104.29 90.18,105.66 C90.35,106.57 91.33,107.43 92.34,107.58 C93.35,107.73 94.44,108.11 94.76,108.42 ZM 98.80 69.80 C96.49,72.11 95.78,71.48 93.49,64.98 C91.81,60.21 93.56,59.72 95.80,64.32 C96.52,65.80 97.76,67.00 98.55,67.00 C100.31,67.00 100.42,68.18 98.80,69.80 ZM 105.01 54.75 C105.00,55.44 104.54,56.00 103.97,56.00 C103.36,56.00 103.01,53.57 103.12,50.01 L 103.30 44.01 L 105.42 46.26 C107.26,48.22 107.37,48.82 106.27,51.00 C105.58,52.38 105.01,54.06 105.01,54.75 ZM 66.00 84.05 C66.00,85.36 64.64,85.24 63.20,83.80 C61.84,82.44 61.56,78.00 62.84,78.00 C63.71,78.00 66.00,82.38 66.00,84.05 ZM 98.00 88.50 C98.00,89.32 97.15,90.00 96.11,90.00 C95.07,90.00 93.95,89.32 93.64,88.50 C93.22,87.42 93.75,87.00 95.53,87.00 C97.06,87.00 98.00,87.57 98.00,88.50 Z" fill="rgb(15,56,116)"/>
<path d="M 93.50 23.00 C94.05,23.24 94.69,23.43 95.34,23.57 C92.43,23.44 90.82,23.73 89.27,24.54 C87.75,25.34 85.57,25.99 84.44,25.99 C83.31,26.00 81.51,26.66 80.44,27.47 C79.37,28.28 77.91,28.95 77.18,28.97 C76.45,28.99 75.22,29.63 74.45,30.41 C73.27,31.58 73.27,32.08 74.62,33.73 C72.98,31.75 72.88,31.78 71.45,33.60 C66.22,40.25 63.71,44.70 62.44,49.56 C61.38,53.63 60.87,61.79 61.06,67.60 C61.02,66.75 61.00,65.86 61.00,64.94 C61.00,56.90 59.77,54.40 58.62,60.12 C57.62,65.13 57.90,71.39 59.25,74.29 C60.49,76.95 62.67,77.85 62.97,76.02 C66.09,82.79 71.29,95.87 72.50,100.15 C74.36,106.77 77.02,126.10 76.25,127.38 C75.22,129.10 73.88,124.87 72.45,115.34 C70.93,105.18 68.83,99.88 62.05,89.09 C55.42,78.53 53.56,72.76 53.65,63.00 C53.77,48.56 60.71,35.16 71.38,28.79 C81.78,22.58 85.39,21.55 96.50,21.58 C105.22,21.60 110.74,22.58 116.10,25.67 C113.77,24.61 111.41,24.01 109.62,24.27 C107.91,24.52 103.26,24.36 99.27,23.91 C99.19,23.90 99.12,23.90 99.04,23.89 C100.14,23.80 100.81,23.51 100.50,23.00 C100.16,22.45 98.00,22.03 95.69,22.07 C92.43,22.12 91.95,22.33 93.50,23.00 ZM 121.47 105.69 C121.87,103.95 122.26,102.59 122.56,101.98 C123.25,100.60 123.60,98.34 123.34,96.97 C122.99,95.19 123.59,93.79 125.43,92.07 C126.84,90.74 128.00,89.26 128.00,88.79 C128.00,88.31 128.95,86.63 130.12,85.05 C131.28,83.48 131.95,81.73 131.60,81.16 C131.25,80.60 131.42,79.86 131.98,79.51 C132.54,79.16 133.00,76.73 133.00,74.10 C133.00,70.30 132.71,69.32 130.98,68.42 C131.82,68.68 132.63,68.73 133.02,68.49 C134.35,67.67 134.26,59.61 132.83,52.53 C131.94,48.05 131.42,47.05 130.58,48.12 C130.54,48.17 130.49,48.23 130.44,48.28 C131.13,46.12 126.91,36.00 125.29,36.00 C124.35,36.00 124.07,35.36 124.46,34.11 C124.70,33.37 124.42,32.46 123.79,31.51 C124.17,31.86 124.56,32.22 124.95,32.59 C133.81,40.95 138.13,49.39 138.79,59.60 C139.53,71.17 136.58,80.31 128.01,93.00 C124.24,98.58 122.57,101.50 121.47,105.69 ZM 87.58 125.25 C87.45,124.82 87.14,123.18 86.74,120.84 C87.74,126.12 88.46,127.94 89.12,127.28 C89.53,126.87 89.45,123.89 88.93,119.10 C89.50,123.23 90.06,126.39 90.38,126.71 C90.55,126.88 91.93,126.05 93.45,124.86 C95.15,123.53 96.45,123.09 96.85,123.73 C98.27,125.97 100.79,129.09 101.70,129.83 C97.81,130.13 92.27,129.94 91.63,129.30 C91.25,128.91 89.37,128.70 87.46,128.83 C85.56,128.96 84.00,128.66 84.00,128.16 C84.00,127.53 83.77,125.92 83.41,123.78 C84.04,126.71 84.61,127.00 86.09,127.00 C87.58,127.00 87.99,126.53 87.58,125.25 ZM 114.43 87.76 C113.19,86.79 111.69,86.00 111.09,86.00 C109.98,86.00 109.52,82.74 109.92,77.69 C110.17,74.61 108.54,72.00 106.38,72.00 C106.02,72.00 105.73,72.10 105.51,72.27 C105.63,71.70 105.81,71.03 106.05,70.22 C107.01,67.02 107.71,66.25 109.65,66.25 L 112.05 66.25 L 111.39 75.06 C110.72,83.85 110.73,83.89 113.65,86.80 C114.25,87.40 114.72,87.88 115.09,88.30 C114.89,88.13 114.67,87.96 114.43,87.76 ZM 99.96 169.07 C98.93,171.00 95.47,171.62 93.40,170.23 C92.79,169.83 91.77,168.49 91.11,167.25 C89.95,165.04 90.04,165.00 95.46,165.00 C101.17,165.00 101.82,165.59 99.96,169.07 ZM 94.76 108.42 C94.44,108.11 93.35,107.73 92.34,107.58 C91.33,107.43 90.35,106.57 90.18,105.66 C89.91,104.29 90.74,104.00 94.93,104.00 C100.26,104.00 101.39,105.23 98.25,107.61 C96.29,109.10 95.59,109.26 94.76,108.42 ZM 66.00 84.05 C66.00,82.38 63.71,78.00 62.84,78.00 C61.56,78.00 61.84,82.44 63.20,83.80 C64.64,85.24 66.00,85.36 66.00,84.05 ZM 88.08 112.38 C86.92,104.14 86.49,98.13 87.03,97.59 C86.64,97.98 87.25,105.22 88.08,112.38 ZM 128.49 49.68 C128.41,49.71 128.34,49.73 128.28,49.74 C127.35,49.92 126.34,48.81 125.77,47.42 C126.39,48.64 127.48,49.55 128.49,49.68 ZM 82.76 120.21 C82.20,117.25 81.51,113.86 80.81,110.68 C81.61,114.10 82.26,117.11 82.48,118.50 C82.58,119.11 82.67,119.68 82.76,120.21 ZM 106.32 75.85 C106.34,75.87 106.36,75.88 106.37,75.89 C107.17,76.55 107.89,79.81 108.34,84.77 C107.88,80.18 107.12,76.77 106.32,75.85 ZM 82.00 94.15 C82.40,94.89 83.21,98.77 83.97,103.42 C83.18,98.83 82.43,95.26 82.08,94.50 C81.87,94.03 81.62,93.38 81.38,92.65 C81.59,93.26 81.81,93.79 82.00,94.15 ZM 76.73 89.24 C76.50,90.84 76.79,93.45 77.62,97.42 C76.77,93.55 76.47,90.88 76.73,89.24 ZM 129.55 67.77 C128.66,67.42 128.28,67.47 128.12,68.23 C128.28,67.37 128.67,67.34 129.55,67.77 ZM 111.44 95.99 C113.21,96.65 113.75,96.20 115.08,93.15 C115.22,92.84 115.34,92.56 115.45,92.30 C115.33,92.59 115.19,92.91 115.04,93.26 C113.75,96.21 113.20,96.64 111.44,95.99 ZM 128.00 70.80 C128.00,70.85 128.00,70.91 128.00,70.97 C128.00,72.62 127.77,73.91 127.32,74.77 C127.77,73.91 128.00,72.60 128.00,70.92 C128.00,70.88 128.00,70.84 128.00,70.80 ZM 77.27 35.48 C78.05,35.43 79.15,35.06 81.00,34.42 C79.15,35.06 78.05,35.43 77.27,35.48 ZM 79.47 87.44 C79.13,87.18 78.71,87.11 78.21,87.21 C78.72,87.11 79.13,87.18 79.47,87.44 Z" fill="rgb(29,50,91)"/>
<path d="M 130.42 48.34 C130.43,48.32 130.44,48.30 130.44,48.28 C130.49,48.23 130.54,48.17 130.58,48.12 C131.42,47.05 131.94,48.05 132.83,52.53 C134.26,59.61 134.35,67.67 133.02,68.49 C132.63,68.73 131.82,68.68 130.98,68.42 C130.83,68.34 130.67,68.26 130.50,68.18 C130.13,68.01 129.81,67.87 129.55,67.77 C128.67,67.34 128.28,67.37 128.12,68.23 C128.01,68.74 128.00,69.56 128.00,70.80 L 128.00 70.84 L 128.00 70.92 C128.00,72.60 127.77,73.91 127.32,74.77 C127.08,75.24 126.78,75.59 126.41,75.79 C125.55,76.27 123.50,80.93 120.82,88.28 C120.97,87.83 121.12,87.40 121.25,87.00 C127.52,68.63 128.07,57.35 123.33,44.57 C121.72,40.20 119.91,36.47 119.32,36.27 C117.25,35.58 117.14,38.88 119.07,43.95 C120.84,48.61 122.71,60.52 122.45,65.50 C122.08,72.46 121.92,73.14 120.75,72.75 C119.89,72.47 119.34,68.79 119.00,60.92 L 118.50 49.50 L 106.89 49.50 C107.18,48.38 106.76,47.68 105.42,46.26 L 103.30 44.01 L 103.12 50.01 C103.01,53.57 103.36,56.00 103.97,56.00 C104.08,56.00 104.18,55.98 104.28,55.94 C103.28,58.60 102.10,61.99 101.43,64.13 C100.99,65.56 100.48,66.81 99.94,67.82 C99.92,67.31 99.45,67.00 98.55,67.00 C97.76,67.00 96.52,65.80 95.80,64.32 C93.71,60.02 92.04,60.17 93.21,64.11 C92.81,63.06 92.39,61.93 91.98,60.77 C90.18,55.67 88.21,50.98 87.60,50.34 C86.65,49.33 79.99,48.46 76.25,48.87 C75.31,48.97 75.00,52.80 74.98,64.25 C74.97,79.55 74.35,83.38 72.29,80.80 C69.85,77.72 68.53,70.98 68.53,61.50 C68.53,52.01 68.72,51.10 72.28,43.62 C75.37,37.12 75.81,35.45 74.80,34.12 C74.43,33.63 74.06,33.14 73.77,32.75 C74.00,32.99 74.28,33.32 74.62,33.73 L 74.62 33.73 C74.67,33.79 74.72,33.84 74.77,33.91 C75.72,35.05 76.21,35.55 77.27,35.48 L 77.27 35.48 C78.00,35.43 78.99,35.11 80.61,34.55 C80.73,34.51 80.86,34.46 81.00,34.42 C83.47,33.55 86.18,32.26 87.00,31.53 C87.82,30.81 90.07,29.88 92.00,29.46 C96.55,28.47 109.60,28.78 111.80,29.94 C112.73,30.43 114.89,31.34 116.59,31.97 C118.95,32.84 119.89,33.97 120.59,36.80 C121.16,39.12 122.34,40.87 123.74,41.48 C125.24,42.14 125.80,43.04 125.44,44.20 C125.08,45.32 125.28,46.47 125.77,47.42 C126.34,48.81 127.35,49.92 128.28,49.74 C128.34,49.73 128.41,49.71 128.49,49.68 C129.27,49.79 130.01,49.41 130.42,48.34 ZM 106.32 75.85 C107.12,76.77 107.88,80.18 108.34,84.77 C108.38,85.20 108.42,85.63 108.45,86.08 C109.08,94.10 109.41,95.22 111.33,95.95 C111.37,95.97 111.40,95.98 111.44,95.99 L 111.44 95.99 C113.20,96.64 113.75,96.21 115.04,93.26 C115.19,92.91 115.33,92.59 115.45,92.30 C116.45,89.95 116.42,89.43 115.09,88.30 C114.73,87.89 114.26,87.42 113.67,86.83 L 116.62 89.78 L 114.32 94.99 C110.65,103.32 108.05,113.14 107.36,121.28 C107.07,124.74 106.83,126.67 106.40,127.80 L 104.86 122.24 C103.68,118.00 103.05,112.49 103.09,106.85 C103.13,102.02 102.93,97.70 102.65,97.25 C101.96,96.13 88.16,96.43 87.03,97.59 C86.56,98.06 86.83,102.66 87.67,109.28 C86.93,104.50 86.01,99.55 85.06,95.50 C84.02,91.10 83.02,83.05 82.84,77.61 C82.52,68.23 82.61,67.70 84.58,67.39 C86.40,67.11 87.03,68.20 89.47,75.78 C92.85,86.30 93.48,87.19 97.34,86.80 C100.20,86.52 100.54,85.98 103.91,76.38 C104.33,75.16 104.72,74.08 105.06,73.13 C104.95,73.94 105.37,75.03 106.32,75.85 ZM 98.00 88.50 C98.00,87.57 97.06,87.00 95.53,87.00 C93.75,87.00 93.22,87.42 93.64,88.50 C93.95,89.32 95.07,90.00 96.11,90.00 C97.15,90.00 98.00,89.32 98.00,88.50 ZM 112.08 118.24 C111.37,122.49 111.02,126.16 111.33,127.39 C110.99,126.08 111.33,122.52 112.08,118.24 ZM 105.29 72.52 C105.44,72.10 105.59,71.70 105.73,71.34 C105.64,71.68 105.57,71.99 105.51,72.27 C105.43,72.34 105.35,72.42 105.29,72.52 ZM 72.63 32.33 C72.34,32.57 71.97,32.95 71.59,33.42 C72.04,32.85 72.35,32.48 72.63,32.33 ZM 105.44 52.96 C105.57,52.59 105.72,52.21 105.88,51.84 ZM 86.73 120.81 C87.20,123.25 87.60,124.95 87.96,126.02 C87.60,124.96 87.20,123.27 86.74,120.84 ZM 111.26 76.74 C110.74,83.87 110.93,84.08 113.65,86.80 C110.93,84.08 110.74,83.86 111.26,76.74 ZM 89.30 126.79 C89.25,127.04 89.20,127.20 89.12,127.28 L 89.11 127.29 C89.19,127.21 89.25,127.04 89.30,126.79 Z" fill="rgb(16,71,143)"/>
<path d="M 114.50 186.58 C107.82,188.08 85.10,188.29 78.07,186.91 C65.76,184.50 51.32,178.10 41.47,170.70 C35.10,165.91 25.00,155.77 25.00,154.17 C25.00,152.49 27.89,152.03 29.34,153.48 C30.30,154.44 31.05,154.55 31.77,153.83 C32.49,153.11 33.33,153.58 34.51,155.37 C36.81,158.88 45.13,165.08 55.50,171.00 C73.32,181.18 99.11,184.65 118.50,179.48 C127.86,176.99 143.80,168.73 151.19,162.55 C173.98,143.48 185.84,113.92 182.07,85.58 C180.70,75.32 176.92,63.14 173.42,57.77 C172.09,55.72 171.00,53.64 171.00,53.14 C171.00,51.19 157.01,35.20 150.94,30.21 C137.81,19.43 115.83,11.02 100.75,11.01 C96.92,11.00 94.00,10.57 94.00,10.00 C94.00,9.45 95.32,9.00 96.94,9.00 C98.56,9.00 100.16,8.55 100.50,8.00 C100.84,7.45 101.99,7.00 103.06,7.00 C104.13,7.00 105.00,6.32 105.00,5.50 C105.00,3.57 105.51,3.60 116.38,6.11 C121.73,7.36 130.20,10.45 136.88,13.61 C162.14,25.54 180.07,47.78 186.78,75.49 C189.15,85.28 189.09,107.00 186.67,116.50 C185.00,123.05 184.24,125.26 180.19,135.50 C177.21,143.05 169.75,153.51 161.63,161.54 C146.64,176.36 136.88,181.54 114.50,186.58 ZM 88.04 71.52 C86.68,67.77 85.98,67.17 84.58,67.39 C82.61,67.70 82.52,68.23 82.84,77.61 C82.84,77.63 82.84,77.66 82.84,77.69 C82.03,67.08 81.78,56.45 82.79,57.50 C83.32,58.05 85.68,64.35 88.03,71.50 ZM 111.65 66.25 L 109.65 66.25 C108.24,66.25 107.49,66.66 106.81,68.10 C108.55,63.29 109.92,59.75 110.16,59.50 C110.96,58.71 111.52,61.80 111.65,66.25 ZM 119.00 66.00 L 118.50 49.50 L 119.00 60.92 C119.34,68.79 119.89,72.47 120.75,72.75 C121.47,72.99 121.81,72.83 122.05,71.02 C121.58,74.73 120.87,78.65 120.21,80.50 C119.82,81.60 119.28,75.07 119.00,66.00 ZM 93.50 23.00 C91.95,22.33 92.43,22.12 95.69,22.07 C98.00,22.03 100.16,22.45 100.50,23.00 C100.81,23.51 100.14,23.80 99.04,23.89 C97.60,23.73 96.39,23.62 95.34,23.57 C94.69,23.43 94.05,23.24 93.50,23.00 ZM 109.31 109.81 C110.55,104.77 112.27,99.65 114.32,94.99 L 116.62 89.78 L 113.65 86.80 C113.55,86.70 113.44,86.60 113.35,86.50 L 113.35 86.50 C112.85,86.00 112.44,85.58 112.12,85.17 L 112.12 85.17 C111.77,84.73 111.52,84.30 111.35,83.80 C110.90,82.49 110.97,80.67 111.26,76.75 L 111.26 76.74 L 111.27 76.67 C111.04,80.89 111.28,83.59 112.12,85.17 C112.44,85.58 112.84,86.00 113.35,86.50 C113.93,86.84 114.64,87.00 115.49,87.00 L 117.92 87.00 L 115.00 93.50 C112.56,98.93 110.64,104.46 109.31,109.81 ZM 92.69 84.50 C91.81,82.86 90.88,80.15 89.47,75.78 C89.45,75.73 89.44,75.68 89.42,75.63 C90.74,79.48 91.95,82.75 92.69,84.50 ZM 121.61 55.15 C120.98,51.00 120.09,46.81 119.21,44.32 C120.22,47.16 121.26,51.72 121.56,54.73 C121.58,54.87 121.59,55.01 121.61,55.15 ZM 122.08 70.77 C122.21,69.65 122.32,67.97 122.45,65.50 C122.49,64.71 122.48,63.74 122.42,62.66 C122.45,62.92 122.48,63.15 122.50,63.35 C122.67,64.70 122.47,67.64 122.08,70.77 ZM 105.10 72.95 C105.08,73.01 105.07,73.07 105.06,73.13 C104.72,74.08 104.33,75.16 103.91,76.38 C101.23,84.01 100.47,85.92 98.83,86.52 C100.55,85.86 101.41,83.56 104.97,73.30 C105.02,73.18 105.06,73.06 105.10,72.95 ZM 84.49 92.73 C84.68,93.75 84.87,94.69 85.06,95.50 C86.01,99.55 86.93,104.50 87.67,109.28 C87.67,109.32 87.68,109.37 87.68,109.41 C86.93,104.58 86.00,99.56 85.03,95.50 C84.85,94.73 84.67,93.80 84.49,92.73 ZM 97.21 86.81 C95.99,86.93 95.10,86.90 94.33,86.45 C95.11,86.75 96.18,86.89 97.21,86.81 ZM 105.29 72.52 C105.25,72.58 105.21,72.64 105.18,72.71 C105.47,71.89 105.75,71.08 106.03,70.30 C105.92,70.67 105.82,71.02 105.73,71.34 C105.59,71.70 105.44,72.10 105.29,72.52 Z" fill="rgb(42,81,117)"/>
<path d="M 114.75 142.25 C114.44,143.17 109.75,143.57 96.86,143.77 C87.24,143.92 79.07,143.73 78.69,143.36 C76.71,141.38 79.56,141.00 96.58,141.00 C111.01,141.00 115.07,141.28 114.75,142.25 Z" fill="rgb(46,149,99)"/>
<path d="M 7.00 111.41 C7.00,115.73 5.25,115.15 4.57,110.60 C2.71,98.19 4.50,74.79 7.40,73.68 C8.14,73.39 8.74,71.21 8.85,68.45 C8.98,65.04 9.66,63.07 11.26,61.45 C14.66,58.02 15.93,56.26 15.40,55.73 C15.14,55.47 15.84,55.01 16.96,54.72 C18.08,54.43 18.75,54.59 18.44,55.09 C18.13,55.59 18.36,56.00 18.94,56.00 C20.48,56.00 20.24,58.56 18.56,59.95 C17.77,60.60 16.84,62.46 16.48,64.07 C16.13,65.68 15.48,67.00 15.03,67.00 C14.59,67.00 13.19,71.16 11.93,76.25 C10.21,83.19 9.64,88.29 9.66,96.70 C9.69,105.19 9.37,108.03 8.35,108.42 C7.61,108.70 7.00,110.05 7.00,111.41 ZM 29.00 44.25 C29.00,44.66 28.04,45.00 26.87,45.00 C24.96,45.00 24.79,44.59 25.28,40.96 C26.01,35.50 27.75,33.13 36.42,25.73 C48.16,15.71 57.21,11.60 55.47,17.08 C55.12,18.20 55.34,19.00 55.99,19.00 C56.61,19.00 56.84,18.56 56.51,18.01 C56.16,17.44 56.56,17.28 57.45,17.62 C59.70,18.48 59.36,19.47 56.26,21.08 C49.06,24.81 40.93,30.94 35.25,36.92 C31.81,40.54 29.00,43.84 29.00,44.25 ZM 73.48 104.43 C73.73,105.31 73.96,106.17 74.17,107.00 C75.92,113.88 77.92,119.95 78.60,120.50 C79.27,121.05 79.99,122.39 80.18,123.49 C80.37,124.58 81.24,125.62 82.12,125.78 C83.34,126.02 83.56,125.52 83.06,121.97 C83.18,122.66 83.29,123.26 83.41,123.78 C83.77,125.92 84.00,127.53 84.00,128.16 C84.00,128.54 84.91,128.80 86.19,128.85 C85.67,128.88 85.15,128.93 84.62,128.99 C80.23,129.47 77.27,129.06 75.64,127.72 C75.86,127.81 76.06,127.70 76.25,127.38 C76.89,126.32 75.16,112.77 73.48,104.43 ZM 75.27 127.38 C74.93,127.02 74.67,126.60 74.48,126.12 C74.25,125.52 73.75,123.08 73.21,119.97 C73.95,123.98 74.64,126.48 75.27,127.38 ZM 67.62 86.94 C66.01,82.93 64.30,78.90 62.97,76.02 C64.49,79.19 66.09,82.97 67.62,86.94 ZM 113.79 129.00 C114.73,128.83 115.75,128.12 116.57,126.98 C115.76,128.34 114.86,129.00 113.85,129.00 C113.83,129.00 113.81,129.00 113.79,129.00 ZM 118.25 122.73 C118.90,120.21 119.59,116.73 120.05,113.50 C119.51,117.29 118.92,120.35 118.25,122.73 ZM 91.26 129.18 C90.89,128.95 89.85,128.81 88.49,128.79 C90.00,128.78 91.32,128.98 91.63,129.30 C91.67,129.33 91.71,129.36 91.77,129.40 C91.55,129.33 91.38,129.26 91.26,129.18 ZM 69.52 103.22 C67.94,99.03 65.65,94.82 62.05,89.09 C65.66,94.84 67.94,99.03 69.52,103.22 ZM 100.62 129.90 C100.99,129.88 101.35,129.86 101.70,129.83 L 101.70 129.83 C101.35,129.86 100.99,129.88 100.62,129.90 ZM 76.73 89.24 C76.73,89.25 76.73,89.26 76.72,89.27 C76.85,88.38 77.13,87.80 77.57,87.48 C77.14,87.80 76.85,88.37 76.73,89.24 Z" fill="rgb(79,114,149)"/>
<path d="M 104.56 11.17 C101.70,11.04 98.36,11.11 93.50,11.32 C82.60,11.79 78.88,12.40 70.50,15.09 C65.12,16.81 59.56,19.03 57.95,20.08 C59.38,19.03 59.19,18.29 57.45,17.62 C56.56,17.28 56.16,17.44 56.51,18.01 C56.84,18.56 56.61,19.00 55.99,19.00 C55.34,19.00 55.12,18.20 55.47,17.08 C56.19,14.84 55.09,14.20 52.73,14.92 C59.77,11.15 67.23,7.98 73.00,6.54 C76.57,5.64 85.42,4.64 92.65,4.31 C97.25,4.10 101.38,4.11 105.29,4.39 C105.04,4.62 105.00,4.99 105.00,5.50 C105.00,6.32 104.13,7.00 103.06,7.00 C101.99,7.00 100.84,7.45 100.50,8.00 C100.16,8.55 98.56,9.00 96.94,9.00 C95.32,9.00 94.00,9.45 94.00,10.00 C94.00,10.57 96.92,11.00 100.75,11.01 C101.98,11.01 103.25,11.07 104.56,11.17 ZM 7.00 111.41 C7.00,110.05 7.61,108.70 8.35,108.42 C9.15,108.11 9.52,106.27 9.63,101.33 C10.60,112.24 13.87,124.88 18.31,133.61 C20.53,137.98 27.52,147.39 33.09,153.73 C32.59,153.40 32.17,153.43 31.77,153.83 C31.05,154.55 30.30,154.44 29.34,153.48 C27.89,152.03 25.00,152.49 25.00,154.17 C25.00,154.57 25.65,155.52 26.71,156.80 C22.90,152.71 20.00,149.18 20.00,148.27 C20.00,147.57 19.60,147.00 19.12,147.00 C16.80,147.00 6.82,123.06 5.04,113.21 C4.97,112.81 4.90,112.39 4.83,111.96 C5.62,115.22 7.00,115.26 7.00,111.41 ZM 113.26 5.40 C120.71,6.77 127.94,9.37 136.88,13.60 C162.15,25.56 180.07,47.78 186.78,75.49 C180.07,47.78 162.14,25.54 136.88,13.61 C130.20,10.45 121.73,7.36 116.38,6.11 C115.23,5.85 114.19,5.61 113.26,5.40 ZM 10.14 85.96 C10.49,82.75 11.06,79.73 11.93,76.25 C12.64,73.39 13.39,70.83 13.99,69.13 C12.80,72.71 11.09,80.11 10.14,85.96 ZM 34.35 155.14 C34.97,155.81 35.56,156.44 36.12,157.00 C37.87,158.77 40.22,160.84 42.56,162.71 C38.59,159.81 35.72,157.22 34.51,155.37 C34.46,155.29 34.40,155.21 34.35,155.14 ZM 128.86 17.48 C137.07,20.84 144.93,25.28 150.94,30.21 C145.50,25.75 137.14,21.01 128.86,17.48 ZM 43.65 29.34 C40.85,31.66 37.64,34.59 34.94,37.25 C35.04,37.14 35.15,37.03 35.25,36.92 C37.69,34.35 40.58,31.76 43.65,29.34 ZM 4.16 88.40 C4.67,80.59 5.83,74.28 7.40,73.68 C5.92,74.25 4.73,80.63 4.16,88.40 ZM 57.61 20.31 C56.24,21.25 54.94,22.00 54.67,22.00 C54.60,22.00 54.40,22.09 54.10,22.26 C54.82,21.84 55.55,21.45 56.26,21.08 C56.79,20.81 57.24,20.55 57.61,20.31 ZM 57.91 180.25 C64.57,183.28 71.61,185.64 78.07,186.91 C71.58,185.64 64.56,183.29 57.91,180.25 ZM 38.19 24.25 C37.61,24.72 37.01,25.22 36.42,25.73 C35.21,26.76 34.14,27.69 33.18,28.55 C34.23,27.61 35.41,26.58 36.76,25.42 C37.21,25.03 37.69,24.64 38.19,24.25 ZM 41.39 170.64 C41.36,170.61 41.33,170.59 41.29,170.56 C40.99,170.34 40.68,170.09 40.36,169.83 C40.71,170.11 41.06,170.38 41.39,170.64 Z" fill="rgb(58,95,135)"/>
<path d="M 82.76 120.21 C82.86,120.86 82.96,121.44 83.06,121.97 C83.56,125.52 83.34,126.02 82.12,125.78 C81.24,125.62 80.37,124.58 80.18,123.49 C79.99,122.39 79.27,121.05 78.60,120.50 C77.92,119.95 75.92,113.88 74.17,107.00 C73.96,106.17 73.73,105.31 73.48,104.43 C73.15,102.74 72.81,101.27 72.50,100.15 C71.81,97.70 69.80,92.34 67.62,86.94 C67.26,86.01 66.90,85.08 66.53,84.18 C67.37,85.42 68.17,86.00 69.01,86.00 C71.74,86.00 72.97,83.35 71.90,80.26 C72.03,80.45 72.16,80.63 72.29,80.80 C73.69,82.55 74.42,81.35 74.76,75.58 C74.73,81.42 74.87,86.06 75.26,86.66 C75.65,87.27 76.78,87.56 77.82,87.33 C77.73,87.38 77.65,87.42 77.57,87.48 L 77.56 87.49 C77.13,87.81 76.85,88.39 76.72,89.27 C76.48,90.92 76.78,93.58 77.62,97.42 C78.04,99.42 78.60,101.77 79.30,104.50 C79.82,106.53 80.34,108.67 80.81,110.68 C81.51,113.86 82.20,117.25 82.76,120.21 ZM 5.43 77.50 C9.96,56.41 20.88,38.44 36.78,25.41 L 36.76 25.42 C35.41,26.58 34.23,27.61 33.18,28.55 L 33.18 28.55 C27.28,33.85 25.91,36.26 25.28,40.96 C24.79,44.59 24.96,45.00 26.87,45.00 C27.57,45.00 28.20,44.88 28.59,44.69 C23.93,50.56 20.00,56.27 20.00,57.68 C20.00,58.27 19.35,59.29 18.56,59.95 C20.24,58.56 20.48,56.00 18.94,56.00 C18.36,56.00 18.13,55.59 18.44,55.09 C18.75,54.59 18.08,54.43 16.96,54.72 C15.84,55.01 15.14,55.47 15.40,55.73 C15.93,56.26 14.66,58.02 11.26,61.45 C9.66,63.07 8.98,65.04 8.85,68.45 C8.74,71.21 8.14,73.39 7.40,73.68 C6.01,74.21 4.93,79.24 4.36,85.84 C4.60,82.58 4.96,79.67 5.43,77.50 ZM 86.73 120.81 C86.25,117.96 85.63,114.06 85.02,110.00 C84.68,107.71 84.32,105.47 83.97,103.42 C83.33,99.53 82.66,96.17 82.23,94.75 C82.65,95.95 83.15,98.07 83.46,100.04 C84.56,106.95 86.21,111.99 87.18,111.39 C87.56,111.15 87.72,110.45 87.63,109.04 C87.65,109.17 87.67,109.29 87.68,109.41 C87.88,110.60 87.98,111.49 88.08,112.38 C88.35,114.71 88.65,117.03 88.93,119.10 C89.35,123.00 89.48,125.70 89.30,126.79 C89.25,127.04 89.19,127.21 89.12,127.28 L 89.11 127.29 C88.76,127.63 88.39,127.26 87.96,126.02 L 87.96 126.02 C87.60,124.95 87.20,123.25 86.73,120.81 ZM 72.63 32.33 C72.99,32.13 73.29,32.27 73.77,32.75 C74.06,33.14 74.43,33.63 74.80,34.12 C75.81,35.45 75.37,37.12 72.28,43.62 C71.90,44.41 71.56,45.13 71.25,45.80 C71.43,45.36 71.62,44.92 71.81,44.50 C73.33,41.20 74.56,37.72 74.54,36.76 C74.50,34.81 72.51,34.33 72.47,36.26 C72.43,38.38 70.96,40.00 69.10,40.00 C67.78,40.00 66.59,40.71 65.53,42.13 C66.96,39.61 68.88,36.87 71.45,33.60 C71.50,33.54 71.54,33.48 71.59,33.42 C71.97,32.95 72.34,32.57 72.63,32.33 ZM 89.61 181.37 C98.62,181.92 109.74,181.39 116.60,179.96 C108.30,181.89 98.95,182.32 89.61,181.37 ZM 68.53 61.50 C68.53,66.65 68.92,70.99 69.67,74.38 C68.28,69.26 67.92,63.03 68.57,57.07 C68.54,58.32 68.53,59.77 68.53,61.50 ZM 76.21 48.88 C75.70,49.20 75.25,56.06 74.99,63.86 C75.00,52.79 75.32,49.02 76.23,48.87 C76.22,48.87 76.21,48.88 76.21,48.88 ZM 78.47 5.58 C82.52,4.93 87.02,4.56 92.65,4.31 C87.98,4.52 82.63,5.01 78.47,5.58 ZM 29.04 44.13 C29.31,43.54 31.14,41.36 33.55,38.73 C32.05,40.45 30.51,42.29 29.04,44.13 ZM 84.49 92.73 C84.67,93.80 84.85,94.73 85.03,95.50 C85.37,96.93 85.71,98.48 86.04,100.09 C85.73,98.72 85.38,97.19 84.99,95.50 C84.72,94.33 84.45,92.79 84.20,90.99 C84.29,91.59 84.39,92.17 84.49,92.73 ZM 53.08 169.59 C54.05,170.14 55.10,170.73 56.07,171.28 C57.87,172.29 59.79,173.27 61.79,174.18 C59.61,173.21 57.50,172.15 55.50,171.00 C54.68,170.53 53.87,170.06 53.08,169.59 ZM 62.44 49.56 C62.45,49.53 62.46,49.50 62.47,49.47 C61.49,53.28 60.98,60.57 61.03,66.13 C60.96,60.48 61.47,53.29 62.44,49.56 ZM 79.47 87.44 C79.29,87.30 79.09,87.22 78.86,87.18 C79.58,87.22 80.00,87.71 80.32,88.86 C80.10,88.18 79.82,87.71 79.47,87.44 ZM 63.00 75.56 C63.00,74.77 62.55,73.84 62.00,73.50 C62.55,73.84 63.00,74.71 63.00,75.43 C63.00,75.64 63.08,76.02 63.22,76.50 C63.13,76.33 63.05,76.16 62.97,75.98 C62.99,75.86 63.00,75.71 63.00,75.56 ZM 55.24 13.61 C54.40,14.04 53.56,14.48 52.73,14.92 C52.66,14.94 52.59,14.97 52.52,14.99 C53.42,14.52 54.33,14.06 55.24,13.61 ZM 86.80 49.89 C87.18,50.03 87.46,50.18 87.60,50.34 C88.17,50.94 89.93,55.09 91.63,59.80 C89.93,55.09 88.17,50.95 87.60,50.37 C87.44,50.20 87.17,50.04 86.80,49.89 Z" fill="rgb(87,119,167)"/>
<path d="M 104.59 129.41 L 106.69 128.85 L 106.40 127.80 C106.83,126.67 107.07,124.74 107.36,121.28 C107.66,117.69 108.34,113.78 109.31,109.81 C110.64,104.46 112.56,98.93 115.00,93.50 L 117.92 87.00 L 115.49 87.00 C114.65,87.00 113.94,86.85 113.36,86.51 C114.02,86.84 114.83,86.92 115.82,86.81 L 118.50 86.50 L 118.50 49.50 L 119.00 66.00 C119.28,75.07 119.82,81.60 120.21,80.50 C120.87,78.65 121.58,74.73 122.05,71.02 C122.06,70.94 122.07,70.86 122.08,70.77 L 122.08 70.77 C122.47,67.63 122.67,64.70 122.50,63.35 C122.48,63.15 122.45,62.92 122.42,62.66 C122.30,60.48 122.01,57.82 121.61,55.15 C121.59,55.01 121.58,54.87 121.56,54.73 C121.26,51.72 120.22,47.16 119.21,44.32 C119.16,44.19 119.12,44.07 119.07,43.95 C117.89,40.83 117.47,38.39 117.81,37.12 C117.81,37.10 117.82,37.08 117.82,37.06 C118.03,36.38 118.46,36.07 119.13,36.22 C119.19,36.23 119.26,36.25 119.32,36.27 C119.91,36.47 121.72,40.20 123.33,44.57 C128.07,57.35 127.52,68.63 121.25,87.00 C121.12,87.40 120.97,87.83 120.82,88.28 C119.08,93.03 117.09,98.90 114.99,105.50 C113.87,109.03 112.79,113.93 112.08,118.24 C111.33,122.52 110.99,126.08 111.33,127.39 L 111.33 127.39 C111.35,127.45 111.36,127.51 111.38,127.56 C111.84,128.74 112.76,129.19 113.79,129.00 C113.81,129.00 113.83,129.00 113.85,129.00 C114.86,129.00 115.76,128.34 116.57,126.98 C116.77,126.70 116.95,126.39 117.13,126.06 C116.42,127.89 115.72,129.00 115.14,129.06 C111.88,129.35 107.67,129.55 103.70,129.64 C103.99,129.57 104.29,129.49 104.59,129.41 ZM 62.47 49.47 C63.11,47.03 64.07,44.70 65.53,42.13 C66.59,40.71 67.78,40.00 69.10,40.00 C70.96,40.00 72.43,38.38 72.47,36.26 C72.51,34.33 74.50,34.81 74.54,36.76 C74.56,37.72 73.33,41.20 71.81,44.50 C71.62,44.92 71.43,45.36 71.25,45.80 C69.21,50.25 68.69,52.19 68.57,57.07 C67.92,63.03 68.28,69.26 69.67,74.38 C70.22,76.88 70.97,78.86 71.90,80.26 C72.97,83.35 71.74,86.00 69.01,86.00 C68.17,86.00 67.37,85.42 66.53,84.18 C65.43,81.43 64.30,78.83 63.22,76.50 C63.08,76.02 63.00,75.64 63.00,75.43 C63.00,74.71 62.55,73.84 62.00,73.50 C61.57,73.23 61.19,70.77 61.06,67.60 C61.04,67.12 61.03,66.63 61.03,66.13 C60.98,60.57 61.49,53.28 62.47,49.47 ZM 82.00 94.15 C81.81,93.79 81.59,93.26 81.38,92.65 C81.05,91.67 80.74,90.58 80.54,89.68 C80.48,89.38 80.40,89.11 80.32,88.86 C80.00,87.71 79.58,87.22 78.86,87.18 C78.79,87.17 78.72,87.17 78.64,87.16 C82.57,86.17 83.04,85.35 82.61,74.50 C82.68,75.56 82.76,76.62 82.84,77.69 C82.98,81.57 83.52,86.75 84.20,90.99 C84.45,92.79 84.72,94.33 84.99,95.50 C85.38,97.19 85.73,98.72 86.03,100.09 L 86.04 100.09 C86.61,102.95 87.15,106.03 87.63,109.04 C87.72,110.45 87.56,111.15 87.18,111.39 C86.21,111.99 84.56,106.95 83.46,100.04 C83.15,98.07 82.65,95.95 82.23,94.75 C82.14,94.47 82.07,94.27 82.00,94.15 ZM 91.15 129.12 C90.46,128.92 89.23,128.81 87.81,128.81 C88.04,128.80 88.27,128.79 88.49,128.79 C89.73,128.81 90.71,128.92 91.15,129.12 ZM 75.26 86.66 C75.60,87.19 76.62,87.47 77.67,87.36 C76.68,87.53 75.63,87.24 75.26,86.66 ZM 86.26 128.85 C85.72,128.88 85.17,128.93 84.62,128.99 C85.15,128.93 85.67,128.88 86.19,128.85 C86.21,128.85 86.23,128.85 86.26,128.85 ZM 111.96 84.95 L 111.96 84.95 C112.01,85.02 112.06,85.09 112.12,85.17 L 112.12 85.17 C112.06,85.10 112.01,85.03 111.96,84.95 Z" fill="rgb(99,128,189)"/>
<path d="M 94.08 165.00 L 96.50 164.91 L 90.50 162.16 L 94.50 161.96 C97.93,161.79 98.12,161.67 95.85,161.13 C93.81,160.64 93.48,160.24 94.43,159.37 C95.35,158.53 96.47,158.58 98.83,159.57 C102.36,161.05 103.05,163.00 100.06,163.00 C98.99,163.00 97.84,163.45 97.50,164.00 C97.16,164.55 97.81,165.00 98.94,165.00 C100.55,165.00 101.17,165.58 100.85,166.94 C101.17,165.33 99.72,165.00 95.46,165.00 C94.96,165.00 94.50,165.00 94.08,165.00 ZM 97.13 170.88 C94.19,171.61 90.02,170.87 88.55,168.77 C87.11,166.71 87.13,166.48 88.74,165.84 C89.21,165.65 89.94,165.47 90.77,165.33 C90.28,165.62 90.55,166.18 91.11,167.25 C91.77,168.49 92.79,169.83 93.40,170.23 C94.45,170.94 95.86,171.12 97.13,170.88 Z" fill="rgb(116,130,147)"/>
<path d="M 91.26 129.18 C91.38,129.26 91.55,129.33 91.77,129.40 C92.75,129.90 97.07,130.08 100.62,129.90 L 100.62 129.90 C100.99,129.88 101.35,129.86 101.70,129.83 C101.83,129.93 101.93,129.99 101.99,129.99 C102.20,129.98 102.89,129.84 103.70,129.64 C107.67,129.55 111.88,129.35 115.14,129.06 C115.72,129.00 116.42,127.89 117.13,126.06 C117.14,126.04 117.15,126.01 117.16,125.99 C117.05,126.30 116.93,126.58 116.82,126.83 C115.70,129.33 114.80,133.75 114.69,137.33 L 114.55 141.84 C113.53,141.20 108.73,141.00 96.58,141.00 C83.87,141.00 79.06,141.21 78.27,142.14 C78.20,141.50 78.28,140.69 78.50,139.99 C78.88,138.82 78.68,138.00 78.02,138.00 C77.34,138.00 77.00,136.30 77.14,133.61 C77.27,131.03 76.95,129.23 76.14,128.07 C77.83,129.13 80.64,129.42 84.62,128.99 C85.17,128.93 85.72,128.88 86.26,128.85 C86.63,128.87 87.04,128.86 87.46,128.83 C87.58,128.82 87.70,128.81 87.81,128.81 C89.23,128.81 90.46,128.92 91.15,129.12 C91.19,129.14 91.23,129.16 91.26,129.18 ZM 33.29 153.88 C33.22,153.82 33.16,153.77 33.09,153.73 C27.52,147.39 20.53,137.98 18.31,133.61 C13.87,124.88 10.60,112.24 9.63,101.33 C9.66,100.01 9.67,98.48 9.66,96.70 C9.65,92.51 9.79,89.14 10.14,85.96 C11.09,80.11 12.80,72.71 13.99,69.13 C14.46,67.80 14.84,67.00 15.03,67.00 C15.48,67.00 16.13,65.68 16.48,64.07 C16.83,62.50 17.72,60.71 18.50,60.01 C17.67,61.01 15.85,67.51 14.43,74.55 C12.22,85.54 11.89,89.32 12.28,99.50 C12.68,110.17 14.28,119.03 16.95,125.50 C21.75,137.12 27.31,146.74 33.29,153.88 ZM 90.36 138.50 C89.94,139.60 90.49,140.00 92.42,140.00 C95.25,140.00 97.00,137.10 97.00,132.39 C97.00,129.95 96.88,129.92 89.75,130.21 L 82.50 130.50 L 82.19 133.75 C81.87,136.98 81.89,137.00 86.41,137.00 C90.02,137.00 90.82,137.30 90.36,138.50 ZM 94.08 165.00 C92.19,165.01 91.19,165.07 90.77,165.33 C89.94,165.47 89.21,165.65 88.74,165.84 C87.23,166.43 87.12,166.68 88.28,168.38 C88.15,168.21 88.01,168.02 87.87,167.82 C86.33,165.66 85.99,164.50 86.80,164.23 C89.01,163.50 88.03,161.16 84.85,159.57 C83.11,158.71 81.14,158.00 80.47,158.00 C79.44,158.00 78.00,153.86 78.00,150.88 C78.00,150.39 79.35,150.00 81.00,150.00 C83.29,150.00 84.00,150.45 84.00,151.92 C84.00,152.97 83.47,154.01 82.82,154.23 C80.77,154.91 83.01,157.00 85.81,157.02 C87.91,157.03 88.17,157.24 87.00,158.00 C85.84,158.75 86.13,158.97 88.31,158.98 C90.39,159.00 91.08,159.46 90.95,160.75 C90.89,161.27 90.86,161.74 90.85,162.14 L 94.50 161.93 C97.60,161.75 97.89,161.61 95.77,161.29 C93.78,160.98 93.35,160.68 94.01,159.85 C93.69,160.41 94.23,160.74 95.85,161.13 C98.12,161.67 97.93,161.79 94.50,161.96 L 90.85 162.15 C90.85,162.20 90.84,162.26 90.84,162.32 C90.81,164.51 91.52,164.99 93.75,164.95 L 96.50 164.91 ZM 104.00 156.50 C104.00,157.47 103.03,157.99 101.25,157.98 C99.11,157.97 98.83,157.76 100.00,157.00 C101.16,156.25 100.81,156.02 98.50,155.98 L 95.50 155.93 L 97.90 154.60 C99.61,153.65 99.90,153.13 98.90,152.80 C98.13,152.54 99.25,151.99 101.40,151.59 C104.19,151.06 105.53,151.23 106.13,152.18 C107.37,154.14 107.18,155.00 105.50,155.00 C104.68,155.00 104.00,155.68 104.00,156.50 ZM 100.50 168.00 C100.48,168.03 100.47,168.07 100.45,168.10 C100.65,167.65 100.79,167.27 100.85,166.94 C101.17,165.58 100.55,165.00 98.94,165.00 C98.83,165.00 98.73,165.00 98.63,164.99 C99.39,164.91 100.19,164.50 100.50,164.00 C100.81,163.49 100.50,163.07 99.81,163.01 C99.89,163.00 99.97,163.00 100.06,163.00 C101.56,163.00 102.13,162.51 101.89,161.84 C103.09,163.35 103.14,163.29 102.57,161.37 C101.89,159.06 103.88,157.63 106.42,158.61 C107.56,159.04 107.43,159.57 105.77,161.23 C103.88,163.12 103.84,163.41 105.33,164.50 C107.08,165.78 106.56,167.00 104.27,167.00 C103.51,167.00 103.16,166.55 103.50,166.00 C103.84,165.45 103.65,165.00 103.08,165.00 C102.52,165.00 101.35,166.35 100.50,168.00 ZM 113.52 156.97 C112.20,159.11 110.79,157.91 111.21,155.02 C111.57,152.55 111.22,151.89 109.07,151.10 C106.73,150.24 106.88,150.15 110.70,150.08 C114.79,150.00 114.90,150.08 114.53,152.97 C114.32,154.61 113.87,156.41 113.52,156.97 ZM 107.00 133.00 C107.00,135.68 107.33,136.09 109.25,135.82 C110.90,135.59 111.50,134.83 111.50,133.00 C111.50,131.17 110.90,130.41 109.25,130.18 C107.33,129.91 107.00,130.32 107.00,133.00 ZM 81.00 139.48 C81.00,140.60 81.78,140.80 84.25,140.34 C89.34,139.39 89.90,138.00 85.20,138.00 C82.16,138.00 81.00,138.41 81.00,139.48 ZM 105.61 138.57 C105.15,139.79 105.60,140.06 107.68,139.82 C109.15,139.64 110.53,138.94 110.76,138.25 C111.37,136.38 106.33,136.69 105.61,138.57 ZM 114.53 142.51 L 114.50 143.50 L 97.02 143.77 C108.54,143.59 113.45,143.25 114.53,142.51 ZM 68.77 101.36 C67.21,97.84 64.97,93.86 61.68,88.56 C57.70,82.14 55.51,77.47 54.46,72.47 C55.54,77.58 57.83,82.36 62.05,89.09 C65.11,93.97 67.23,97.75 68.77,101.36 ZM 74.13 124.77 C73.87,124.09 73.68,123.37 73.57,122.72 C73.30,120.98 72.58,116.36 71.96,112.38 C72.13,113.32 72.30,114.31 72.45,115.34 C72.71,117.06 72.96,118.60 73.21,119.97 C73.55,121.94 73.88,123.63 74.13,124.77 ZM 89.21 169.48 C90.03,170.18 91.21,170.66 92.49,170.93 C91.00,170.78 90.11,170.40 89.21,169.48 ZM 100.14 160.21 C99.76,159.99 99.32,159.78 98.83,159.57 C98.04,159.24 97.39,159.01 96.84,158.89 C97.90,159.02 99.09,159.49 100.14,160.21 ZM 63.80 175.03 C63.12,174.76 62.46,174.47 61.79,174.18 L 61.79 174.18 C60.14,173.42 58.54,172.63 57.02,171.80 C59.27,172.99 61.53,174.06 63.80,175.03 ZM 29.04 44.13 C30.51,42.29 32.05,40.45 33.55,38.73 C33.67,38.61 33.79,38.47 33.92,38.34 C32.30,40.17 30.63,42.18 29.02,44.18 C29.02,44.16 29.03,44.15 29.04,44.13 ZM 97.29 170.85 C97.99,170.70 98.63,170.41 99.15,170.01 C98.67,170.46 98.10,170.71 97.29,170.85 ZM 42.19 162.41 C43.13,163.11 44.07,163.79 45.02,164.45 C44.16,163.86 43.34,163.28 42.56,162.71 C42.43,162.61 42.31,162.51 42.19,162.41 ZM 25.68 48.46 C26.59,47.24 27.57,45.97 28.59,44.69 C28.60,44.69 28.61,44.68 28.62,44.68 C27.59,45.96 26.60,47.24 25.68,48.46 ZM 34.35 155.14 C34.33,155.11 34.31,155.08 34.29,155.05 C34.48,155.27 34.67,155.48 34.86,155.69 C34.69,155.51 34.52,155.33 34.35,155.14 ZM 90.85 162.15 L 90.85 162.14 L 90.50 162.16 Z" fill="rgb(179,186,195)"/>
<path d="M 0.00 96.00 L 0.00 0.00 L 96.00 0.00 L 192.00 0.00 L 192.00 96.00 L 192.00 192.00 L 96.00 192.00 L 0.00 192.00 L 0.00 96.00 ZM 114.50 186.58 C136.88,181.54 146.64,176.36 161.63,161.54 C169.75,153.51 177.21,143.05 180.19,135.50 C184.24,125.26 185.00,123.05 186.67,116.50 C189.09,107.00 189.15,85.28 186.78,75.49 C180.07,47.78 162.15,25.56 136.88,13.60 C120.34,5.78 109.66,3.53 92.65,4.31 C76.29,5.05 69.44,6.74 55.50,13.49 C29.43,26.09 11.56,48.94 5.43,77.50 C3.66,85.74 3.45,104.46 5.04,113.21 C6.82,123.06 16.80,147.00 19.12,147.00 C19.60,147.00 20.00,147.57 20.00,148.27 C20.00,150.29 34.46,165.43 41.29,170.56 C51.32,178.10 65.67,184.48 78.07,186.91 C85.10,188.29 107.82,188.08 114.50,186.58 ZM 81.50 180.46 C68.04,177.95 54.84,171.87 41.91,162.21 C32.66,155.30 23.99,142.55 16.95,125.50 C14.28,119.03 12.68,110.17 12.28,99.50 C11.89,89.32 12.22,85.54 14.43,74.55 C15.87,67.43 17.71,60.87 18.52,59.97 C19.34,59.08 20.00,57.95 20.00,57.48 C20.00,55.23 32.06,39.63 38.74,33.23 C41.94,30.16 53.52,22.00 54.67,22.00 C54.96,22.00 56.39,21.17 57.85,20.15 C59.31,19.12 65.00,16.85 70.50,15.09 C78.88,12.40 82.60,11.79 93.50,11.32 C104.63,10.84 107.80,11.07 115.50,12.91 C126.81,15.61 142.45,23.24 150.94,30.21 C157.01,35.20 171.00,51.19 171.00,53.14 C171.00,53.64 172.09,55.72 173.42,57.77 C176.92,63.14 180.70,75.32 182.07,85.58 C185.84,113.92 173.98,143.48 151.19,162.55 C143.83,168.71 127.92,176.96 118.50,179.51 C109.96,181.82 91.36,182.30 81.50,180.46 ZM 100.50 168.00 C101.35,166.35 102.52,165.00 103.08,165.00 C103.65,165.00 103.84,165.45 103.50,166.00 C103.16,166.55 103.51,167.00 104.27,167.00 C106.56,167.00 107.08,165.78 105.33,164.50 C103.84,163.41 103.88,163.12 105.77,161.23 C107.43,159.57 107.56,159.04 106.42,158.61 C103.88,157.63 101.89,159.06 102.57,161.37 C103.15,163.31 103.08,163.35 101.85,161.80 C99.77,159.17 95.74,157.98 94.27,159.56 C93.28,160.62 93.57,160.95 95.77,161.29 C97.89,161.61 97.60,161.75 94.50,161.93 L 90.50 162.16 L 93.50 163.54 L 96.50 164.91 L 93.75 164.95 C91.06,165.00 90.59,164.29 90.95,160.75 C91.08,159.46 90.39,159.00 88.31,158.98 C86.13,158.97 85.84,158.75 87.00,158.00 C88.17,157.24 87.91,157.03 85.81,157.02 C83.01,157.00 80.77,154.91 82.82,154.23 C83.47,154.01 84.00,152.97 84.00,151.92 C84.00,150.45 83.29,150.00 81.00,150.00 C79.35,150.00 78.00,150.39 78.00,150.88 C78.00,153.86 79.44,158.00 80.47,158.00 C81.14,158.00 83.11,158.71 84.85,159.57 C88.03,161.16 89.01,163.50 86.80,164.23 C85.99,164.50 86.33,165.66 87.87,167.82 C89.83,170.57 90.73,171.00 94.54,171.00 C98.43,171.00 99.13,170.64 100.50,168.00 ZM 104.00 156.50 C104.00,155.68 104.68,155.00 105.50,155.00 C107.18,155.00 107.37,154.14 106.13,152.18 C105.53,151.23 104.19,151.06 101.40,151.59 C99.25,151.99 98.13,152.54 98.90,152.80 C99.90,153.13 99.61,153.65 97.90,154.60 L 95.50 155.93 L 98.50 155.98 C100.81,156.02 101.16,156.25 100.00,157.00 C98.83,157.76 99.11,157.97 101.25,157.98 C103.03,157.99 104.00,157.47 104.00,156.50 ZM 113.52 156.97 C113.87,156.41 114.32,154.61 114.53,152.97 C114.90,150.08 114.79,150.00 110.70,150.08 C106.88,150.15 106.73,150.24 109.07,151.10 C111.22,151.89 111.57,152.55 111.21,155.02 C110.79,157.91 112.20,159.11 113.52,156.97 ZM 114.69 137.33 C114.80,133.75 115.70,129.33 116.82,126.83 C117.89,124.45 119.34,118.45 120.04,113.50 C121.42,103.76 122.34,101.38 128.01,93.00 C136.58,80.31 139.53,71.17 138.79,59.60 C138.13,49.39 133.81,40.95 124.95,32.59 C115.72,23.88 109.85,21.61 96.50,21.58 C85.39,21.55 81.78,22.58 71.38,28.79 C60.71,35.16 53.77,48.56 53.65,63.00 C53.57,72.61 55.39,78.40 61.68,88.56 C68.50,99.55 70.79,104.84 71.93,112.19 C72.56,116.21 73.30,120.95 73.57,122.72 C73.85,124.49 74.82,126.67 75.72,127.58 C76.83,128.69 77.29,130.63 77.14,133.61 C77.00,136.30 77.34,138.00 78.02,138.00 C78.68,138.00 78.88,138.82 78.50,139.99 C78.16,141.09 78.16,142.45 78.51,143.01 C78.92,143.68 85.46,143.95 96.82,143.77 L 114.50 143.50 L 114.69 137.33 ZM 97.50 164.00 C97.84,163.45 98.79,163.00 99.62,163.00 C100.44,163.00 100.84,163.45 100.50,164.00 C100.16,164.55 99.21,165.00 98.38,165.00 C97.56,165.00 97.16,164.55 97.50,164.00 ZM 81.00 139.48 C81.00,138.41 82.16,138.00 85.20,138.00 C89.90,138.00 89.34,139.39 84.25,140.34 C81.78,140.80 81.00,140.60 81.00,139.48 ZM 90.36 138.50 C90.82,137.30 90.02,137.00 86.41,137.00 C81.89,137.00 81.87,136.98 82.19,133.75 L 82.50 130.50 L 89.75 130.21 C96.88,129.92 97.00,129.95 97.00,132.39 C97.00,137.10 95.25,140.00 92.42,140.00 C90.49,140.00 89.94,139.60 90.36,138.50 ZM 105.61 138.57 C106.33,136.69 111.37,136.38 110.76,138.25 C110.53,138.94 109.15,139.64 107.68,139.82 C105.60,140.06 105.15,139.79 105.61,138.57 ZM 107.00 133.00 C107.00,130.32 107.33,129.91 109.25,130.18 C110.90,130.41 111.50,131.17 111.50,133.00 C111.50,134.83 110.90,135.59 109.25,135.82 C107.33,136.09 107.00,135.68 107.00,133.00 ZM 75.26 86.66 C74.15,84.95 75.04,49.61 76.21,48.88 C77.69,47.95 86.35,49.08 87.60,50.37 C88.21,50.99 90.18,55.67 91.98,60.77 C93.79,65.87 95.67,70.30 96.17,70.61 C97.77,71.59 99.95,68.91 101.43,64.13 C102.22,61.58 103.75,57.25 104.83,54.50 L 106.80 49.50 L 112.65 49.50 L 118.50 49.50 L 118.50 68.00 L 118.50 86.50 L 115.82 86.81 C111.68,87.29 110.62,84.28 111.43,74.36 C112.08,66.33 111.39,58.28 110.16,59.50 C109.83,59.83 107.50,66.04 104.97,73.30 C100.53,86.08 100.29,86.51 97.36,86.80 C95.69,86.97 93.88,86.52 93.32,85.80 C92.77,85.09 90.39,78.65 88.03,71.50 C85.68,64.35 83.32,58.05 82.79,57.50 C82.16,56.86 82.04,61.52 82.45,70.60 C83.12,85.60 82.99,86.10 78.25,87.26 C77.01,87.56 75.67,87.29 75.26,86.66 Z" fill="rgb(142,161,179)"/>
<path d="M 0.00 96.00 L 0.00 0.00 L 96.00 0.00 L 192.00 0.00 L 192.00 96.00 L 192.00 192.00 L 96.00 192.00 L 0.00 192.00 L 0.00 96.00 ZM 114.50 186.58 C136.88,181.54 146.64,176.36 161.63,161.54 C169.75,153.51 177.21,143.05 180.19,135.50 C184.24,125.26 185.00,123.05 186.67,116.50 C189.09,107.00 189.15,85.28 186.78,75.49 C180.07,47.78 162.15,25.56 136.88,13.60 C120.34,5.78 109.66,3.53 92.65,4.31 C76.29,5.05 69.44,6.74 55.50,13.49 C29.43,26.09 11.56,48.94 5.43,77.50 C3.66,85.74 3.45,104.46 5.04,113.21 C6.82,123.06 16.80,147.00 19.12,147.00 C19.60,147.00 20.00,147.57 20.00,148.27 C20.00,150.29 34.46,165.43 41.29,170.56 C51.32,178.10 65.67,184.48 78.07,186.91 C85.10,188.29 107.82,188.08 114.50,186.58 ZM 81.50 180.46 C68.04,177.95 54.84,171.87 41.91,162.21 C32.66,155.30 23.99,142.55 16.95,125.50 C14.28,119.03 12.68,110.17 12.28,99.50 C11.89,89.32 12.22,85.54 14.43,74.55 C15.87,67.43 17.71,60.87 18.52,59.97 C19.34,59.08 20.00,57.95 20.00,57.48 C20.00,55.23 32.06,39.63 38.74,33.23 C41.94,30.16 53.52,22.00 54.67,22.00 C54.96,22.00 56.39,21.17 57.85,20.15 C59.31,19.12 65.00,16.85 70.50,15.09 C78.88,12.40 82.60,11.79 93.50,11.32 C104.63,10.84 107.80,11.07 115.50,12.91 C126.81,15.61 142.45,23.24 150.94,30.21 C157.01,35.20 171.00,51.19 171.00,53.14 C171.00,53.64 172.09,55.72 173.42,57.77 C176.92,63.14 180.70,75.32 182.07,85.58 C185.84,113.92 173.98,143.48 151.19,162.55 C143.83,168.71 127.92,176.96 118.50,179.51 C109.96,181.82 91.36,182.30 81.50,180.46 ZM 104.71 168.18 C106.57,165.66 106.62,165.25 105.21,164.36 C103.81,163.48 103.88,163.12 105.77,161.23 C107.85,159.15 107.85,159.09 105.95,158.48 C103.66,157.76 103.31,155.00 105.50,155.00 C107.18,155.00 107.37,154.14 106.13,152.17 C105.46,151.11 104.12,151.06 99.46,151.92 C96.25,152.52 93.38,153.01 93.07,153.03 C91.28,153.13 96.82,156.02 98.94,156.09 C102.46,156.21 92.48,158.96 88.50,158.97 C86.20,158.97 85.85,158.74 87.00,158.00 C88.17,157.24 87.91,157.03 85.81,157.02 C83.01,157.00 80.77,154.91 82.82,154.23 C83.47,154.01 84.00,152.97 84.00,151.92 C84.00,150.45 83.29,150.00 81.00,150.00 C79.35,150.00 78.00,150.39 78.00,150.88 C78.00,153.86 79.44,158.00 80.47,158.00 C81.14,158.00 83.11,158.71 84.85,159.57 C88.03,161.16 89.01,163.50 86.80,164.23 C85.99,164.50 86.33,165.66 87.87,167.82 C90.00,170.81 90.50,171.00 96.38,171.00 C102.07,171.00 102.81,170.75 104.71,168.18 ZM 113.52 156.97 C113.87,156.41 114.32,154.61 114.53,152.97 C114.90,150.08 114.79,150.00 110.70,150.08 C106.88,150.15 106.73,150.24 109.07,151.10 C111.22,151.89 111.57,152.55 111.21,155.02 C110.79,157.91 112.20,159.11 113.52,156.97 ZM 114.69 137.33 C114.80,133.75 115.70,129.33 116.82,126.83 C117.89,124.45 119.34,118.45 120.04,113.50 C121.42,103.76 122.34,101.38 128.01,93.00 C136.58,80.31 139.53,71.17 138.79,59.60 C138.13,49.39 133.81,40.95 124.95,32.59 C115.72,23.88 109.85,21.61 96.50,21.58 C85.39,21.55 81.78,22.58 71.38,28.79 C60.71,35.16 53.77,48.56 53.65,63.00 C53.57,72.61 55.39,78.40 61.68,88.56 C68.50,99.55 70.79,104.84 71.93,112.19 C72.56,116.21 73.30,120.95 73.57,122.72 C73.85,124.49 74.82,126.67 75.72,127.58 C76.83,128.69 77.29,130.63 77.14,133.61 C77.00,136.30 77.34,138.00 78.02,138.00 C78.68,138.00 78.88,138.82 78.50,139.99 C78.16,141.09 78.16,142.45 78.51,143.01 C78.92,143.68 85.46,143.95 96.82,143.77 L 114.50 143.50 L 114.69 137.33 ZM 81.00 139.48 C81.00,138.41 82.16,138.00 85.20,138.00 C89.90,138.00 89.34,139.39 84.25,140.34 C81.78,140.80 81.00,140.60 81.00,139.48 ZM 90.36 138.50 C90.82,137.30 90.02,137.00 86.41,137.00 C81.89,137.00 81.87,136.98 82.19,133.75 L 82.50 130.50 L 89.75 130.21 C96.88,129.92 97.00,129.95 97.00,132.39 C97.00,137.10 95.25,140.00 92.42,140.00 C90.49,140.00 89.94,139.60 90.36,138.50 ZM 105.61 138.57 C106.33,136.69 111.37,136.38 110.76,138.25 C110.53,138.94 109.15,139.64 107.68,139.82 C105.60,140.06 105.15,139.79 105.61,138.57 ZM 107.00 133.00 C107.00,130.32 107.33,129.91 109.25,130.18 C110.90,130.41 111.50,131.17 111.50,133.00 C111.50,134.83 110.90,135.59 109.25,135.82 C107.33,136.09 107.00,135.68 107.00,133.00 ZM 75.26 86.66 C74.15,84.95 75.04,49.61 76.21,48.88 C77.69,47.95 86.35,49.08 87.60,50.37 C88.21,50.99 90.18,55.67 91.98,60.77 C93.79,65.87 95.67,70.30 96.17,70.61 C97.77,71.59 99.95,68.91 101.43,64.13 C102.22,61.58 103.75,57.25 104.83,54.50 L 106.80 49.50 L 112.65 49.50 L 118.50 49.50 L 118.50 68.00 L 118.50 86.50 L 115.82 86.81 C111.68,87.29 110.62,84.28 111.43,74.36 C112.08,66.33 111.39,58.28 110.16,59.50 C109.83,59.83 107.50,66.04 104.97,73.30 C100.53,86.08 100.29,86.51 97.36,86.80 C95.69,86.97 93.88,86.52 93.32,85.80 C92.77,85.09 90.39,78.65 88.03,71.50 C85.68,64.35 83.32,58.05 82.79,57.50 C82.16,56.86 82.04,61.52 82.45,70.60 C83.12,85.60 82.99,86.10 78.25,87.26 C77.01,87.56 75.67,87.29 75.26,86.66 Z" fill="rgb(204,212,220)"/>
<path d="M 0.00 96.00 L 0.00 0.00 L 96.00 0.00 L 192.00 0.00 L 192.00 96.00 L 192.00 192.00 L 96.00 192.00 L 0.00 192.00 L 0.00 96.00 ZM 114.50 186.58 C136.88,181.54 146.64,176.36 161.63,161.54 C169.75,153.51 177.21,143.05 180.19,135.50 C184.24,125.26 185.00,123.05 186.67,116.50 C189.09,107.00 189.15,85.28 186.78,75.49 C180.07,47.78 162.15,25.56 136.88,13.60 C120.34,5.78 109.66,3.53 92.65,4.31 C76.29,5.05 69.44,6.74 55.50,13.49 C29.43,26.09 11.56,48.94 5.43,77.50 C3.66,85.74 3.45,104.46 5.04,113.21 C6.82,123.06 16.80,147.00 19.12,147.00 C19.60,147.00 20.00,147.57 20.00,148.27 C20.00,150.29 34.46,165.43 41.29,170.56 C51.32,178.10 65.67,184.48 78.07,186.91 C85.10,188.29 107.82,188.08 114.50,186.58 ZM 81.50 180.46 C68.04,177.95 54.84,171.87 41.91,162.21 C32.66,155.30 23.99,142.55 16.95,125.50 C14.28,119.03 12.68,110.17 12.28,99.50 C11.89,89.32 12.22,85.54 14.43,74.55 C15.87,67.43 17.71,60.87 18.52,59.97 C19.34,59.08 20.00,57.95 20.00,57.48 C20.00,55.23 32.06,39.63 38.74,33.23 C41.94,30.16 53.52,22.00 54.67,22.00 C54.96,22.00 56.39,21.17 57.85,20.15 C59.31,19.12 65.00,16.85 70.50,15.09 C78.88,12.40 82.60,11.79 93.50,11.32 C104.63,10.84 107.80,11.07 115.50,12.91 C126.81,15.61 142.45,23.24 150.94,30.21 C157.01,35.20 171.00,51.19 171.00,53.14 C171.00,53.64 172.09,55.72 173.42,57.77 C176.92,63.14 180.70,75.32 182.07,85.58 C185.84,113.92 173.98,143.48 151.19,162.55 C143.83,168.71 127.92,176.96 118.50,179.51 C109.96,181.82 91.36,182.30 81.50,180.46 ZM 108.28 164.36 C113.53,158.75 114.51,157.12 114.59,153.96 L 114.68 150.20 L 96.39 150.20 L 78.11 150.20 L 78.38 154.35 C78.61,157.89 79.52,159.41 84.57,164.68 C90.47,170.83 90.53,170.87 96.28,170.93 L 102.07 171.00 L 108.28 164.36 ZM 114.69 137.33 C114.80,133.75 115.70,129.33 116.82,126.83 C117.89,124.45 119.34,118.45 120.04,113.50 C121.42,103.76 122.34,101.38 128.01,93.00 C136.58,80.31 139.53,71.17 138.79,59.60 C138.13,49.39 133.81,40.95 124.95,32.59 C115.72,23.88 109.85,21.61 96.50,21.58 C85.39,21.55 81.78,22.58 71.38,28.79 C60.71,35.16 53.77,48.56 53.65,63.00 C53.57,72.61 55.39,78.40 61.68,88.56 C68.50,99.55 70.79,104.84 71.93,112.19 C72.56,116.21 73.30,120.95 73.57,122.72 C73.85,124.49 74.82,126.67 75.72,127.58 C76.83,128.69 77.29,130.63 77.14,133.61 C77.00,136.30 77.34,138.00 78.02,138.00 C78.68,138.00 78.88,138.82 78.50,139.99 C78.16,141.09 78.16,142.45 78.51,143.01 C78.92,143.68 85.46,143.95 96.82,143.77 L 114.50 143.50 L 114.69 137.33 ZM 82.67 156.33 C81.04,154.71 82.35,154.00 87.00,154.00 C89.75,154.00 92.00,154.40 92.00,154.88 C92.00,156.53 84.09,157.76 82.67,156.33 ZM 105.61 138.57 C106.33,136.69 111.37,136.38 110.76,138.25 C110.53,138.94 109.15,139.64 107.68,139.82 C105.60,140.06 105.15,139.79 105.61,138.57 ZM 86.69 137.26 C81.95,136.89 81.89,136.84 82.19,133.69 L 82.50 130.50 L 89.33 130.20 C96.04,129.91 96.15,129.95 95.50,132.20 C95.14,133.47 94.62,135.29 94.35,136.25 C94.08,137.21 93.33,137.92 92.68,137.82 C92.03,137.72 89.34,137.47 86.69,137.26 ZM 107.00 133.00 C107.00,130.32 107.33,129.91 109.25,130.18 C110.90,130.41 111.50,131.17 111.50,133.00 C111.50,134.83 110.90,135.59 109.25,135.82 C107.33,136.09 107.00,135.68 107.00,133.00 ZM 75.26 86.66 C74.15,84.95 75.04,49.61 76.21,48.88 C77.69,47.95 86.35,49.08 87.60,50.37 C88.21,50.99 90.18,55.67 91.98,60.77 C93.79,65.87 95.67,70.30 96.17,70.61 C97.77,71.59 99.95,68.91 101.43,64.13 C102.22,61.58 103.75,57.25 104.83,54.50 L 106.80 49.50 L 112.65 49.50 L 118.50 49.50 L 118.50 68.00 L 118.50 86.50 L 115.82 86.81 C111.68,87.29 110.62,84.28 111.43,74.36 C112.08,66.33 111.39,58.28 110.16,59.50 C109.83,59.83 107.50,66.04 104.97,73.30 C100.53,86.08 100.29,86.51 97.36,86.80 C95.69,86.97 93.88,86.52 93.32,85.80 C92.77,85.09 90.39,78.65 88.03,71.50 C85.68,64.35 83.32,58.05 82.79,57.50 C82.16,56.86 82.04,61.52 82.45,70.60 C83.12,85.60 82.99,86.10 78.25,87.26 C77.01,87.56 75.67,87.29 75.26,86.66 Z" fill="rgb(236,240,242)"/>
<path d="M 0.00 150.00 C0.00,126.90 0.37,108.00 0.83,108.00 C1.73,108.00 4.00,116.80 4.01,120.33 C4.01,121.52 4.59,123.62 5.29,125.00 C6.00,126.38 7.42,129.75 8.44,132.50 C9.47,135.25 11.82,139.87 13.66,142.77 C15.50,145.67 17.01,148.37 17.02,148.77 C17.04,150.09 34.13,168.48 37.21,170.50 C38.04,171.05 41.21,173.15 44.24,175.16 C54.61,182.04 69.22,187.71 80.75,189.32 C84.74,189.87 88.00,190.70 88.00,191.16 C88.00,191.62 68.20,192.00 44.00,192.00 L 0.00 192.00 L 0.00 150.00 ZM 104.00 191.14 C104.00,190.67 106.37,190.04 109.26,189.74 C115.69,189.07 125.55,186.29 127.25,184.66 C127.94,184.00 130.52,182.59 133.00,181.52 C142.74,177.30 151.68,171.12 160.50,162.50 C170.29,152.93 174.30,147.63 179.11,137.93 C180.76,134.62 182.84,131.04 183.75,129.98 C185.54,127.89 187.55,121.53 189.09,113.09 C191.48,99.98 191.94,105.57 191.97,148.25 L 192.00 192.00 L 148.00 192.00 C123.80,192.00 104.00,191.61 104.00,191.14 ZM 81.50 180.46 C68.04,177.95 54.84,171.87 41.91,162.21 C32.66,155.30 23.99,142.55 16.95,125.50 C11.96,113.43 10.68,92.95 13.92,77.24 C15.09,71.59 16.81,66.07 17.75,64.97 C18.70,63.87 19.53,61.62 19.62,59.96 C19.84,55.58 29.49,42.09 38.74,33.23 C41.94,30.16 53.52,22.00 54.67,22.00 C54.96,22.00 56.39,21.17 57.85,20.15 C59.31,19.12 65.00,16.85 70.50,15.09 C78.88,12.40 82.60,11.79 93.50,11.32 C104.63,10.84 107.80,11.07 115.50,12.91 C126.81,15.61 142.45,23.24 150.94,30.21 C157.01,35.20 171.00,51.19 171.00,53.14 C171.00,53.64 172.09,55.72 173.42,57.77 C176.92,63.14 180.70,75.32 182.07,85.58 C185.84,113.92 173.98,143.48 151.19,162.55 C143.83,168.71 127.92,176.96 118.50,179.51 C109.96,181.82 91.36,182.30 81.50,180.46 ZM 108.28 164.36 C113.53,158.75 114.51,157.12 114.59,153.96 L 114.68 150.20 L 96.39 150.20 L 78.11 150.20 L 78.38 154.35 C78.61,157.89 79.52,159.41 84.57,164.68 C90.47,170.83 90.53,170.87 96.28,170.93 L 102.07 171.00 L 108.28 164.36 ZM 78.00 148.00 C78.00,147.37 84.83,147.00 96.50,147.00 C110.63,147.00 115.00,147.30 115.02,148.25 C115.03,149.11 115.31,149.05 115.95,148.05 C116.51,147.16 116.47,145.87 115.83,144.68 C114.10,141.44 114.62,131.74 116.78,126.91 C117.87,124.49 119.34,118.45 120.04,113.50 C121.42,103.76 122.34,101.38 128.01,93.00 C136.58,80.31 139.53,71.17 138.79,59.60 C138.13,49.39 133.81,40.95 124.95,32.59 C115.72,23.88 109.85,21.61 96.50,21.58 C85.39,21.55 81.78,22.58 71.38,28.79 C60.71,35.16 53.77,48.56 53.65,63.00 C53.57,72.61 55.39,78.40 61.68,88.56 C68.50,99.55 70.79,104.84 71.93,112.19 C72.56,116.21 73.29,120.90 73.56,122.62 C73.82,124.34 74.85,126.68 75.85,127.82 C77.37,129.58 77.52,130.73 76.80,135.20 C75.35,144.13 75.43,149.00 77.00,149.00 C77.55,149.00 78.00,148.55 78.00,148.00 ZM 190.00 85.11 C190.00,81.50 188.31,73.02 186.50,67.50 C184.32,60.87 177.36,46.64 175.17,44.36 C174.04,43.18 173.39,41.94 173.72,41.61 C174.80,40.53 151.19,17.71 149.62,18.32 C148.82,18.62 147.93,18.27 147.65,17.52 C147.36,16.78 145.86,15.48 144.31,14.64 C138.76,11.61 131.46,8.19 129.50,7.68 C128.40,7.40 125.08,6.25 122.12,5.12 C117.04,3.19 111.99,2.25 105.75,2.08 C104.24,2.03 103.00,1.55 103.00,1.00 C103.00,0.35 118.50,0.00 147.50,0.00 L 192.00 0.00 L 192.00 43.44 C192.00,71.32 191.64,87.10 191.00,87.50 C190.42,87.86 190.00,86.86 190.00,85.11 ZM 0.75 86.41 C0.34,86.00 -0.00,66.39 -0.00,42.83 L 0.00 0.00 L 45.00 0.00 C75.59,0.00 90.00,0.33 90.00,1.04 C90.00,1.62 89.44,1.99 88.75,1.87 C84.79,1.19 72.16,3.88 64.50,7.04 C63.40,7.49 60.87,8.36 58.89,8.96 C51.56,11.20 35.95,21.90 28.92,29.50 C13.65,46.02 6.04,60.76 2.67,80.33 C2.02,84.09 1.16,86.83 0.75,86.41 ZM 82.19 133.75 C82.48,130.72 82.78,130.48 86.62,130.20 C89.63,129.98 90.91,130.32 91.34,131.45 C92.65,134.85 89.93,136.95 84.19,136.99 C82.18,137.00 81.91,136.57 82.19,133.75 ZM 107.00 133.00 C107.00,130.32 107.33,129.91 109.25,130.18 C110.90,130.41 111.50,131.17 111.50,133.00 C111.50,134.83 110.90,135.59 109.25,135.82 C107.33,136.09 107.00,135.68 107.00,133.00 ZM 77.26 85.75 C77.49,85.06 76.97,83.82 76.09,83.00 C74.74,81.72 74.54,79.09 74.80,65.34 C75.01,53.89 75.44,49.05 76.30,48.74 C76.96,48.50 79.75,48.58 82.49,48.90 C86.76,49.41 87.68,49.93 88.89,52.46 C89.67,54.09 90.24,57.13 90.16,59.21 C90.06,61.88 90.43,63.00 91.43,63.00 C92.21,63.00 93.36,64.57 94.00,66.49 C94.63,68.40 95.58,70.24 96.12,70.57 C97.77,71.59 99.93,68.97 101.43,64.13 C102.22,61.58 103.75,57.25 104.83,54.50 L 106.80 49.50 L 112.65 49.50 L 118.50 49.50 L 118.50 68.00 L 118.50 86.50 L 115.82 86.81 C111.64,87.29 110.67,84.36 111.42,73.61 C111.77,68.60 111.65,63.15 111.15,61.50 C110.11,58.04 110.26,57.78 106.01,70.43 C102.89,79.70 99.97,84.00 96.80,84.00 C94.19,84.00 89.59,76.29 86.41,66.61 C84.95,62.15 83.32,58.05 82.78,57.50 C82.16,56.85 82.04,61.41 82.44,70.36 C82.89,80.21 82.73,84.62 81.91,85.61 C80.47,87.35 76.67,87.47 77.26,85.75 Z" fill="rgb(192,29,36)"/>
<path d="M 0.00 150.00 C0.00,126.90 0.37,108.00 0.83,108.00 C1.73,108.00 4.00,116.80 4.01,120.33 C4.01,121.52 4.59,123.62 5.29,125.00 C6.00,126.38 7.42,129.75 8.44,132.50 C9.47,135.25 11.82,139.87 13.66,142.77 C15.50,145.67 17.01,148.37 17.02,148.77 C17.04,150.09 34.13,168.48 37.21,170.50 C38.04,171.05 41.21,173.15 44.24,175.16 C54.61,182.04 69.22,187.71 80.75,189.32 C84.74,189.87 88.00,190.70 88.00,191.16 C88.00,191.62 68.20,192.00 44.00,192.00 L 0.00 192.00 L 0.00 150.00 ZM 104.00 191.14 C104.00,190.67 106.37,190.04 109.26,189.74 C115.69,189.07 125.55,186.29 127.25,184.66 C127.94,184.00 130.52,182.59 133.00,181.52 C142.74,177.30 151.68,171.12 160.50,162.50 C170.29,152.93 174.30,147.63 179.11,137.93 C180.76,134.62 182.84,131.04 183.75,129.98 C185.54,127.89 187.55,121.53 189.09,113.09 C191.48,99.98 191.94,105.57 191.97,148.25 L 192.00 192.00 L 148.00 192.00 C123.80,192.00 104.00,191.61 104.00,191.14 ZM 81.50 180.46 C68.04,177.95 54.84,171.87 41.91,162.21 C32.66,155.30 23.99,142.55 16.95,125.50 C11.96,113.43 10.68,92.95 13.92,77.24 C15.09,71.59 16.81,66.07 17.75,64.97 C18.70,63.87 19.53,61.62 19.62,59.96 C19.84,55.58 29.49,42.09 38.74,33.23 C41.94,30.16 53.52,22.00 54.67,22.00 C54.96,22.00 56.39,21.17 57.85,20.15 C59.31,19.12 65.00,16.85 70.50,15.09 C78.88,12.40 82.60,11.79 93.50,11.32 C104.63,10.84 107.80,11.07 115.50,12.91 C126.81,15.61 142.45,23.24 150.94,30.21 C157.01,35.20 171.00,51.19 171.00,53.14 C171.00,53.64 172.09,55.72 173.42,57.77 C176.92,63.14 180.70,75.32 182.07,85.58 C185.84,113.92 173.98,143.48 151.19,162.55 C143.83,168.71 127.92,176.96 118.50,179.51 C109.96,181.82 91.36,182.30 81.50,180.46 ZM 108.28 164.36 C113.46,158.82 114.52,157.10 114.59,154.05 C114.64,152.04 115.17,149.53 115.76,148.47 C116.49,147.16 116.51,145.95 115.82,144.65 C114.09,141.44 114.62,131.72 116.78,126.91 C117.87,124.49 119.34,118.45 120.04,113.50 C121.42,103.76 122.34,101.38 128.01,93.00 C136.58,80.31 139.53,71.17 138.79,59.60 C138.13,49.39 133.81,40.95 124.95,32.59 C115.72,23.88 109.85,21.61 96.50,21.58 C85.39,21.55 81.78,22.58 71.38,28.79 C60.71,35.16 53.77,48.56 53.65,63.00 C53.57,72.61 55.39,78.40 61.68,88.56 C68.50,99.55 70.79,104.84 71.93,112.19 C72.56,116.21 73.29,120.90 73.56,122.62 C73.82,124.34 74.85,126.68 75.85,127.82 C77.38,129.59 77.52,130.70 76.76,135.20 C75.55,142.35 75.64,148.16 76.97,148.98 C77.58,149.36 78.20,151.65 78.36,154.08 C78.61,157.94 79.40,159.28 84.57,164.68 C90.47,170.83 90.53,170.87 96.28,170.93 L 102.07 171.00 L 108.28 164.36 ZM 190.00 85.11 C190.00,81.50 188.31,73.02 186.50,67.50 C184.32,60.87 177.36,46.64 175.17,44.36 C174.04,43.18 173.39,41.94 173.72,41.61 C174.80,40.53 151.19,17.71 149.62,18.32 C148.82,18.62 147.93,18.27 147.65,17.52 C147.36,16.78 145.86,15.48 144.31,14.64 C138.76,11.61 131.46,8.19 129.50,7.68 C128.40,7.40 125.08,6.25 122.12,5.12 C117.04,3.19 111.99,2.25 105.75,2.08 C104.24,2.03 103.00,1.55 103.00,1.00 C103.00,0.35 118.50,0.00 147.50,0.00 L 192.00 0.00 L 192.00 43.44 C192.00,71.32 191.64,87.10 191.00,87.50 C190.42,87.86 190.00,86.86 190.00,85.11 ZM 0.75 86.41 C0.34,86.00 -0.00,66.39 -0.00,42.83 L 0.00 0.00 L 45.00 0.00 C75.59,0.00 90.00,0.33 90.00,1.04 C90.00,1.62 89.44,1.99 88.75,1.87 C84.79,1.19 72.16,3.88 64.50,7.04 C63.40,7.49 60.87,8.36 58.89,8.96 C51.56,11.20 35.95,21.90 28.92,29.50 C13.65,46.02 6.04,60.76 2.67,80.33 C2.02,84.09 1.16,86.83 0.75,86.41 ZM 82.19 133.75 C82.48,130.72 82.78,130.48 86.62,130.20 C89.63,129.98 90.91,130.32 91.34,131.45 C92.65,134.85 89.93,136.95 84.19,136.99 C82.18,137.00 81.91,136.57 82.19,133.75 ZM 107.00 133.00 C107.00,130.32 107.33,129.91 109.25,130.18 C110.90,130.41 111.50,131.17 111.50,133.00 C111.50,134.83 110.90,135.59 109.25,135.82 C107.33,136.09 107.00,135.68 107.00,133.00 ZM 77.26 85.75 C77.49,85.06 76.97,83.82 76.09,83.00 C74.74,81.72 74.54,79.09 74.80,65.34 C75.01,53.89 75.44,49.05 76.30,48.74 C76.96,48.50 79.75,48.58 82.49,48.90 C86.76,49.41 87.68,49.93 88.89,52.46 C89.67,54.09 90.24,57.13 90.16,59.21 C90.06,61.88 90.43,63.00 91.43,63.00 C92.21,63.00 93.36,64.57 94.00,66.49 C94.63,68.40 95.58,70.24 96.12,70.57 C97.77,71.59 99.93,68.97 101.43,64.13 C102.22,61.58 103.75,57.25 104.83,54.50 L 106.80 49.50 L 112.65 49.50 L 118.50 49.50 L 118.50 68.00 L 118.50 86.50 L 115.82 86.81 C111.64,87.29 110.67,84.36 111.42,73.61 C111.77,68.60 111.65,63.15 111.15,61.50 C110.11,58.04 110.26,57.78 106.01,70.43 C102.89,79.70 99.97,84.00 96.80,84.00 C94.19,84.00 89.59,76.29 86.41,66.61 C84.95,62.15 83.32,58.05 82.78,57.50 C82.16,56.85 82.04,61.41 82.44,70.36 C82.89,80.21 82.73,84.62 81.91,85.61 C80.47,87.35 76.67,87.47 77.26,85.75 Z" fill="rgb(253,253,253)"/>
</g>
</svg>