<?xml version="1.0" standalone="no"?>
<!DOCTYPE svg PUBLIC "-//W3C//DTD SVG 20010904//EN"
 "http://www.w3.org/TR/2001/REC-SVG-20010904/DTD/svg10.dtd">
<svg version="1.0" xmlns="http://www.w3.org/2000/svg"
 width="512.000000pt" height="512.000000pt" viewBox="0 0 512.000000 512.000000"
 preserveAspectRatio="xMidYMid meet">

<g transform="translate(0.000000,512.000000) scale(0.100000,-0.100000)"
fill="#000000" stroke="none">
<path d="M2361 4920 c-180 -66 -283 -258 -237 -440 9 -36 26 -81 38 -100 l20
-35 -143 -135 c-79 -75 -218 -206 -309 -291 -139 -131 -166 -161 -168 -188 -2
-18 2 -38 8 -46 8 -10 -5 -27 -56 -74 -46 -42 -71 -58 -78 -51 -5 5 -26 10
-45 10 -33 0 -61 -23 -351 -295 l-315 -294 -160 -1 c-88 0 -179 -5 -202 -10
-165 -38 -303 -176 -348 -345 -23 -89 -23 -2001 0 -2090 45 -169 182 -307 346
-344 60 -14 3513 -15 3539 -1 42 23 44 106 1 127 -9 4 -803 10 -1766 13
l-1750 5 -63 34 c-68 37 -110 83 -145 158 l-22 48 0 1005 0 1005 26 56 c33 71
87 125 158 158 l56 26 2150 3 c2396 3 2202 8 2301 -67 35 -26 59 -56 84 -105
l35 -69 0 -1007 0 -1007 -35 -69 c-25 -49 -49 -79 -85 -106 -82 -62 -115 -68
-402 -68 l-254 0 -24 -25 c-32 -31 -32 -69 0 -100 l24 -25 263 0 c145 0 283 5
307 11 164 37 301 175 346 344 23 89 23 2001 0 2090 -45 169 -182 307 -346
344 -24 6 -149 11 -277 11 l-233 0 -682 636 c-375 350 -703 657 -729 683 l-47
46 32 65 c29 59 32 72 32 160 -1 84 -4 102 -30 155 -37 76 -110 149 -183 183
-78 36 -203 41 -281 12z m194 -141 c25 -7 58 -29 86 -58 72 -72 88 -156 45
-247 -76 -164 -313 -170 -395 -9 -91 176 70 368 264 314z m32 -1001 c153 -140
839 -783 841 -790 2 -4 -422 -8 -942 -8 -520 0 -946 2 -946 4 0 8 862 811 884
823 11 7 42 12 69 13 42 0 53 -5 94 -42z"/>
<path d="M1263 2401 c-124 -43 -173 -103 -228 -279 -53 -172 -49 -170 -74 -42
-26 132 -44 173 -99 222 -126 113 -321 79 -396 -71 -44 -87 -45 -78 79 -708
128 -647 131 -656 214 -720 141 -107 349 -66 425 86 13 25 56 153 97 283 40
131 74 236 76 235 1 -2 36 -111 76 -243 41 -131 81 -254 91 -271 84 -164 318
-200 449 -69 20 20 46 53 56 74 11 23 67 275 136 621 91 458 115 592 109 627
-10 69 -61 144 -121 180 -92 55 -174 55 -266 0 -71 -43 -109 -108 -132 -228
-10 -51 -21 -101 -24 -111 -5 -12 -21 29 -48 115 -50 158 -83 215 -155 262
-86 57 -173 69 -265 37z m171 -160 c16 -9 37 -27 48 -41 10 -14 50 -127 88
-250 59 -189 74 -229 97 -247 50 -41 135 -26 163 28 6 10 28 107 50 214 42
207 48 225 82 249 64 45 158 -4 158 -81 0 -45 -214 -1124 -229 -1150 -41 -77
-158 -91 -213 -25 -16 19 -52 120 -108 301 -80 262 -85 273 -123 308 -38 33
-42 35 -98 31 -59 -4 -96 -26 -120 -71 -5 -9 -46 -133 -90 -275 -44 -141 -87
-267 -95 -279 -49 -76 -182 -71 -224 7 -12 23 -230 1120 -230 1159 0 38 41 87
80 95 46 9 98 -17 114 -56 7 -18 30 -121 51 -228 34 -173 42 -198 66 -222 52
-53 150 -31 177 39 6 15 39 118 73 228 65 212 75 235 114 261 53 35 113 37
169 5z"/>
<path d="M2781 2359 c-57 -11 -122 -50 -160 -96 -61 -74 -61 -71 -61 -683 0
-623 -1 -612 70 -693 127 -144 362 -112 447 61 l28 57 0 575 0 575 -28 57
c-55 111 -174 171 -296 147z m128 -175 c17 -14 35 -42 41 -62 14 -50 14 -1034
0 -1084 -22 -77 -111 -112 -181 -71 -60 35 -59 30 -59 613 0 581 0 577 58 612
42 27 104 23 141 -8z"/>
<path d="M3571 2358 c-51 -14 -79 -36 -107 -83 l-25 -43 3 -623 3 -624 27 -45
c55 -94 140 -144 244 -143 74 1 137 27 189 78 59 60 78 113 83 236 l4 106 103
7 c56 3 129 13 160 22 175 45 337 192 395 358 87 246 -3 518 -218 659 -85 57
-159 84 -264 97 -103 13 -551 12 -597 -2z m711 -185 c166 -78 256 -226 246
-403 -9 -149 -96 -279 -236 -347 l-74 -37 -169 -6 c-224 -7 -212 5 -219 -211
l-5 -161 -33 -29 c-58 -52 -154 -33 -187 37 -13 27 -15 114 -15 606 0 316 3
578 7 582 4 4 145 6 313 4 l305 -3 67 -32z"/>
<path d="M3859 2001 c-24 -19 -24 -22 -24 -204 0 -242 -12 -227 184 -227 164
0 200 10 258 71 107 114 72 293 -72 360 -33 15 -65 19 -181 19 -125 0 -145 -2
-165 -19z m306 -156 c14 -13 25 -36 25 -50 0 -14 -11 -37 -25 -50 -21 -22 -33
-25 -100 -25 l-75 0 0 75 0 75 75 0 c67 0 79 -3 100 -25z"/>
</g>
</svg>
